<?xml version="1.0" encoding="utf-8"?>
<!-- Svg Vector Icons : http://www.onlinewebfonts.com/icon -->
<!DOCTYPE svg PUBLIC "-//W3C//DTD SVG 1.1//EN" "http://www.w3.org/Graphics/SVG/1.1/DTD/svg11.dtd">
<svg version="1.1" xmlns="http://www.w3.org/2000/svg" xmlns:xlink="http://www.w3.org/1999/xlink" x="0px" y="0px" viewBox="0 0 1000 1000" enable-background="new 0 0 1000 1000" xml:space="preserve">
<metadata> Svg Vector Icons : http://www.onlinewebfonts.com/icon </metadata>
<g><path d="M917.4,953.7H82.6c-40.1,0-72.6-32.6-72.6-72.6V445.5c0,0,189.5,97.4,362.9,137.3V627c0,20.1,16.3,36.3,36.3,36.3h181.5c20,0,36.3-16.2,36.3-36.3v-44.1C800.5,543,990,445.5,990,445.5v435.5C990,921.1,957.5,953.7,917.4,953.7L917.4,953.7z M554.5,518.1c20,0,36.3,16.2,36.3,36.3v36.2c0,20.1-16.3,36.3-36.3,36.3l-108.9,0c-20,0-36.3-16.2-36.3-36.3v-36.2c0-20.1,16.3-36.3,36.3-36.3L554.5,518.1L554.5,518.1z M627.1,518.1c0-20.1-16.3-36.3-36.3-36.3l-181.5,0c-20,0-36.3,16.2-36.3,36.3v32.5C199.5,509.5,10,409.2,10,409.2V264c0-40.1,32.5-72.6,72.6-72.6h217.7v-72.5c0-40.1,32.5-72.6,72.6-72.6h254.1c40,0,72.5,32.5,72.5,72.6v72.5h217.8c40.1,0,72.6,32.6,72.6,72.6v145.2c0,0-189.5,100.3-362.9,141.4L627.1,518.1L627.1,518.1z M627.1,155.1c0-20-16.3-36.2-36.3-36.2l-181.5,0c-20,0-36.3,16.2-36.3,36.2c0,20.1,0,36.3,0,36.3h254.1C627.1,191.4,627.1,175.2,627.1,155.1L627.1,155.1z"/></g>
</svg>